<svg xmlns="http://www.w3.org/2000/svg" viewBox="0 0 294.12 55"><defs><style>.cls-1{fill:#262626;}.cls-2{fill:#fff;}.cls-3{fill:#e40b20;}.cls-4{fill:none;}.cls-5{fill:#ccc;}.cls-6{fill:#b2b2b2;}</style></defs><title>ttl_pickup</title><g id="レイヤー_2" data-name="レイヤー 2"><g id="レイヤー_1-2" data-name="レイヤー 1"><path class="cls-1" d="M286.07,8.06A27.43,27.43,0,0,0,266.62,0H27.5a27.5,27.5,0,0,0,0,55H266.62A27.5,27.5,0,0,0,286.07,8.06ZM27.83,19a8.54,8.54,0,0,1,1.23,17,12.1,12.1,0,0,1-1.23.08h0A10.51,10.51,0,0,1,26.59,36a8.55,8.55,0,0,1,0-16.91A9.62,9.62,0,0,1,27.83,19ZM26.37,3V16.17l-.19,0a11.46,11.46,0,0,0,.05,22.7h.14V52.06A24.58,24.58,0,0,1,26.37,3Zm1.46,49.13h1.46V38.89h.13a11.46,11.46,0,0,0,0-22.69h-.11V2.92H265.75V17.47h1.45a11.94,11.94,0,0,1,1.38.1,10,10,0,0,1-1.38,19.89h-1.45V52.08ZM268.66,52V40.3l.36,0A12.91,12.91,0,0,0,269,14.68l-.3,0V3a24.59,24.59,0,0,1,0,49Z"/><path class="cls-2" d="M268.66,3V14.64l.3,0A12.91,12.91,0,0,1,269,40.25l-.36,0V52a24.59,24.59,0,0,0,0-49Z"/><path class="cls-2" d="M265.75,52.08V37.46h1.45a10,10,0,0,0,1.38-19.89,11.94,11.94,0,0,0-1.38-.1h-1.45V2.92H29.29V16.18h.11a11.46,11.46,0,0,1,0,22.69h-.13V52.08H265.75Z"/><path class="cls-3" d="M26.37,52.06V38.9h-.14a11.46,11.46,0,0,1-.05-22.7l.19,0V3a24.58,24.58,0,0,0,0,49.11Z"/><polygon class="cls-3" points="27.83 52.09 27.83 52.08 27.49 52.08 27.5 52.09 27.83 52.09"/><path class="cls-2" d="M19.27,27.53A8.59,8.59,0,0,0,26.59,36a10.51,10.51,0,0,0,1.21.08h0A12.1,12.1,0,0,0,29.06,36a8.54,8.54,0,0,0-1.23-17,9.62,9.62,0,0,0-1.27.08A8.55,8.55,0,0,0,19.27,27.53Z"/><polyline class="cls-5" points="265.75 52.09 29.29 52.09 29.29 55 265.75 55"/><rect class="cls-5" x="29.29" width="236.46" height="2.92"/><circle class="cls-6" cx="27.83" cy="27.5" r="5.17"/></g></g></svg>
